<?xml version="1.0" encoding="UTF-8"?>
<!DOCTYPE svg PUBLIC "-//W3C//DTD SVG 1.1//EN" "http://www.w3.org/Graphics/SVG/1.1/DTD/svg11.dtd">
<!-- Creator: CorelDRAW -->
<svg xmlns="http://www.w3.org/2000/svg" xml:space="preserve" width="210mm" height="297mm" version="1.1" style="shape-rendering:geometricPrecision; text-rendering:geometricPrecision; image-rendering:optimizeQuality; fill-rule:evenodd; clip-rule:evenodd"
viewBox="0 0 21000 29700"
 xmlns:xlink="http://www.w3.org/1999/xlink"
 xmlns:xodm="http://www.corel.com/coreldraw/odm/2003">
 <defs>
  <style type="text/css">
   <![CDATA[
    .str1 {stroke:#440204;stroke-width:75;stroke-miterlimit:22.9256}
    .str0 {stroke:#440204;stroke-width:7.62;stroke-miterlimit:22.9256}
    .fil2 {fill:none}
    .fil1 {fill:#440204}
    .fil0 {fill:#440204;fill-rule:nonzero}
   ]]>
  </style>
 </defs>
 <g id="Layer_x0020_1">
  <metadata id="CorelCorpID_0Corel-Layer"/>
  <path class="fil0" d="M6970.6 1315.25l-2004.91 0c171.59,31.61 296.9,111.76 375.92,240.45 79.03,128.7 118.54,249.49 118.54,362.38l0 3535.67c0,112.89 -39.51,233.68 -118.54,362.38 -79.02,128.69 -204.33,208.84 -375.92,240.45l2004.91 0c-171.59,-31.61 -296.9,-111.76 -375.92,-240.45 -79.02,-128.7 -118.53,-249.49 -118.53,-362.38l0 -3535.67c0,-112.89 39.51,-233.68 118.53,-362.38 79.02,-128.69 204.33,-208.84 375.92,-240.45zm1158.24 602.83l-1473.9 1757.86 20.16 3.68c7.16,0.3 14.31,0.74 21.46,1.32 13,1.06 25.98,2.58 38.95,4.56l3.52 0.18 0 0.37c159.77,25.45 317.11,121.34 472.02,287.73 182.88,196.43 333.02,475.26 450.43,836.51 126.43,374.79 279.96,676.2 460.59,904.24 180.62,228.03 444.78,342.05 792.47,342.05l623.15 0c-139.98,-54.19 -240.45,-118.53 -301.41,-193.04 -60.96,-74.51 -143.37,-211.1 -247.23,-409.79l-128.69 -264.16c-144.5,-311.57 -289,-572.34 -433.49,-782.32 -144.5,-209.97 -353.35,-395.11 -626.54,-555.41 -273.19,-160.3 -622.02,-240.45 -1046.48,-240.45l1422.4 -1693.33c90.31,-108.38 234.81,-228.04 433.49,-358.99 198.69,-130.95 386.08,-212.23 562.19,-243.84l-1036.32 0c126.44,27.09 189.66,92.57 189.66,196.43 0,112.88 -65.48,248.35 -196.43,406.4z"/>
  <path class="fil1" d="M9606 6051.12l0 0 139.08 -9.37c243.84,-31.36 358.19,-87.71 570.43,-200.6 212.23,-112.89 381.56,-270.94 508,-474.14 126.43,-203.2 189.65,-438.01 189.65,-704.42 0,-383.82 -119.66,-687.5 -358.99,-911.02 -239.32,-223.52 -564.44,-335.28 -975.36,-335.28l-91.84 0 -0.36 -51.14c232.81,-27.42 428.36,-108.59 586.66,-243.5 198.68,-169.33 298.02,-439.13 298.02,-809.41 0,-343.18 -98.21,-589.28 -294.64,-738.29 -160.2,-121.54 -280.69,-234.38 -523.51,-256.79l-81.38 -7.37 303.48 0c487.68,0 883.92,82.41 1188.72,247.23 304.8,164.81 457.2,405.27 457.2,721.36 0,230.29 -74.51,423.33 -223.52,579.11 -149.01,155.79 -318.35,270.94 -508,345.44 -189.65,74.51 -338.67,111.76 -447.04,111.76 130.95,0 336.41,46.29 616.37,138.86 279.97,92.57 533.97,241.58 762,447.04 228.04,205.46 342.05,468.49 342.05,789.09 0,442.52 -195.29,780.06 -585.89,1012.61 -390.59,232.55 -924.56,348.83 -1601.89,348.83l-269.24 0z"/>
  <line class="fil2" x1="13588.92" y1="645.3" x2="14266.24" y2= "1033.99" />
  <polyline class="fil2" points="8828.38,379.76 9790.49,406.69 10240.76,552.94 10402.4,922.39 "/>
  <polygon class="fil1 str0" points="9104.58,2965.85 9115.84,2966.97 9124.47,2967.91 9134.98,2969.6 9145.49,2971.48 9159.01,2974.48 9174.21,2979.74 9187.35,2984.99 9197.86,2990.06 9207.62,2995.88 9219.44,3003.39 9233.27,3012.15 9248.33,3022.88 9264.12,3035.1 9279.1,3047.81 9295.26,3062.01 9308.82,3076.39 9319.7,3090.09 9332.28,3109.05 9341.6,3127.51 9349.61,3147.77 9355.82,3166.89 9360.39,3189.77 9363.77,3217.77 9365.84,3245.97 9367.15,3267.03 9366.4,3291.84 9365.28,3312.9 9361.8,3334.22 9358.83,3345.4 9354.23,3360.53 9349.95,3373.02 9341.4,3388.81 9332.52,3401.63 9308.12,3437.23 9283.8,3466.1 9252.66,3492.83 9204.62,3522.32 9161.56,3539.2 9107.9,3556.73 9045.58,3588.32 9109.95,3610.73 9158.88,3613.61 9199.75,3618.21 9246.38,3624.54 9290.13,3637.21 9330.99,3655.05 9372.44,3680.95 9410.43,3713.76 9446.12,3751.18 9477.7,3799.82 9500.23,3855.39 9511.74,3908.95 9516.25,3971.52 9511.82,4039.59 9497.01,4089.62 9468.26,4147.72 9435.72,4201.29 9374.54,4266.54 9286.25,4322.36 9243.4,4348.49 9212.04,4360.69 9165.23,4371.9 9122.91,4376.88 9099.01,4376.63 9078.1,4367.66 9054.2,4354.22 9037.27,4341.52 9021.33,4328.08 9002.3,4311.56 8979.27,4278.51 8913.16,4154.32 8847.56,4023.12 8782.03,3903.37 8718.28,3816.96 8660.06,3760.28 8600.31,3723.51 8531.37,3685.21 8465.53,3659.51 8395.01,3646.41 8328.53,3641.37 8291.25,3639.36 8355.72,3559.78 8533.02,3350.25 8700.24,3147.77 8731.47,3117.55 8768.74,3085.32 8816.08,3050.06 8892.8,3009.77 8970.36,2979.55 9023.76,2966.45 9075.13,2965.44 "/>
  <line class="fil2" x1="19940.11" y1="-5483.49" x2="13357.24" y2= "-8236.87" />
  <polyline class="fil2 str1" points="6725.35,3650.4 8311.62,1743.94 8470.23,1533.05 "/>
 </g>
</svg>
